<svg xmlns="http://www.w3.org/2000/svg" viewBox="0 0 1000 520" role="img" aria-label="World map silhouette">
  <defs>
    <linearGradient id="land" x1="0" y1="0" x2="1" y2="1">
      <stop offset="0" stop-color="#FFFFFF" stop-opacity=".18"/>
      <stop offset="1" stop-color="#FFFFFF" stop-opacity=".07"/>
    </linearGradient>
    <filter id="glow" x="-20%" y="-20%" width="140%" height="140%">
      <feGaussianBlur stdDeviation="3" result="blur"/>
      <feMerge>
        <feMergeNode in="blur"/>
        <feMergeNode in="SourceGraphic"/>
      </feMerge>
    </filter>
  </defs>
  <g fill="url(#land)" stroke="#FFFFFF" stroke-opacity=".12" stroke-width="1.3" filter="url(#glow)">
    <path d="M120 121 93 134 64 164 43 197 62 216 92 209 116 230 145 221 171 235 201 219 231 234 261 222 286 196 315 188 326 160 305 131 268 119 241 91 202 82 171 99 145 93Z"/>
    <path d="M246 221 218 235 201 260 214 296 238 322 251 358 275 391 290 433 316 456 339 432 344 396 361 365 352 327 329 296 318 260 292 241Z"/>
    <path d="M461 137 429 147 400 171 413 190 449 186 476 207 507 197 528 172 509 145Z"/>
    <path d="M508 208 472 231 452 268 465 309 492 334 512 381 548 412 581 398 599 354 622 317 608 279 576 253 556 218Z"/>
    <path d="M560 137 599 107 657 96 719 108 761 131 824 142 884 171 933 218 922 254 864 260 824 292 764 281 715 298 676 270 638 286 596 257 568 221 529 209 508 177Z"/>
    <path d="M772 321 809 333 839 363 826 397 786 403 752 385 733 351Z"/>
    <path d="M850 383 900 391 940 423 922 456 867 451 828 424Z"/>
    <path d="M515 122 532 101 566 98 579 119 552 135Z"/>
    <path d="M365 109 389 102 411 116 398 135 371 132Z"/>
    <path d="M692 312 725 319 737 345 713 360 681 347Z"/>
  </g>
</svg>
